<?xml version="1.0" encoding="utf-8"?>
<!-- Generator: Adobe Illustrator 21.1.0, SVG Export Plug-In . SVG Version: 6.00 Build 0)  -->
<svg version="1.1" id="Ebene_1" xmlns="http://www.w3.org/2000/svg" xmlns:xlink="http://www.w3.org/1999/xlink" x="0px" y="0px"
	 width="191.3px" height="102px" viewBox="0 0 191.3 102" style="enable-background:new 0 0 191.3 102;" xml:space="preserve">
<style type="text/css">
	.st0{fill-rule:evenodd;clip-rule:evenodd;fill:#F18800;}
	
		.st1{fill-rule:evenodd;clip-rule:evenodd;fill:#77163E;stroke:#F3F1F1;stroke-width:1.717300e-02;stroke-linecap:round;stroke-linejoin:round;stroke-miterlimit:10;}
	.st2{fill:#77163E;stroke:#77163E;stroke-width:1.717300e-02;stroke-linejoin:round;stroke-miterlimit:10;}
	.st3{fill:#F18800;stroke:#F18800;stroke-width:0.3578;stroke-linejoin:round;stroke-miterlimit:10;}
	.st4{fill:#77163E;stroke:#77163E;stroke-width:0.3578;stroke-linejoin:round;stroke-miterlimit:10;}
</style>
<g>
	<path class="st0" d="M18.2,31.1c-4.9,2.7-8.2,8-8.2,14.1v32.9c0,8.8,7.1,16,15.8,16h31.7c5.9,0,11-3.3,13.8-8.1
		c-1.2,8.4-8.4,14.9-17.1,14.9H19.6c-9.5,0-17.3-7.8-17.3-17.5V48.5C2.4,39.4,9.3,31.9,18.2,31.1L18.2,31.1z"/>
	<path class="st1" d="M53.2,49.6L52.5,1.2C87.7-1,95.8,21.1,93.2,51.8c-1.6-24.9-14.4-34.6-32.4-33l0.7,37.6c0,0.3,0.1,0.6,0.1,1
		v15.5c0,4.3-3.4,7.7-7.6,7.7H28.6c-4.2,0-7.6-3.5-7.6-7.7V57.3c0-4.3,3.4-7.7,7.6-7.7H53.2L53.2,49.6z"/>
	<path class="st2" d="M99,30.4V51c0,0.2,0.1,0.3,0.3,0.3h3.7c0.2,0,0.3-0.1,0.3-0.3v-7.3c0-0.2,0.1-0.3,0.3-0.3h3.6
		c0.8,0.1,1.4,0.7,1.7,1.8l1.8,5.2c0,0.1,0.1,0.3,0.3,0.5c0.1,0.2,0.3,0.3,0.4,0.3h4c0.1,0,0.2,0,0.2-0.1c0,0-0.1-0.1-0.2-0.3
		c-0.1-0.1-0.2-0.3-0.2-0.4l-1.6-5c-0.2-0.5-0.3-0.9-0.5-1.4c-0.2-0.4-0.5-1-1-1.6c0,0,0-0.1,0-0.1c0-0.1,0-0.1,0-0.1
		c0,0,0.1-0.1,0.1-0.1c0.5-0.3,0.9-0.6,1.2-0.9c0.3-0.3,0.6-0.7,0.9-1.1c0.4-0.8,0.6-2.1,0.6-3.8v-0.7c-0.1-1.9-0.5-3.3-1.4-4.2
		c-0.5-0.5-1-0.9-1.6-1.1c-0.5-0.2-1.1-0.3-1.6-0.3H99.3C99.1,30.1,99,30.2,99,30.4L99,30.4z M109.3,33.9c0.4,0.1,0.8,0.4,1.1,1.1
		c0.1,0.2,0.2,0.4,0.2,0.6c0,0.2,0,0.5,0,0.8c0,0.6-0.1,1.1-0.2,1.5c-0.1,0.5-0.4,0.8-0.6,1c-0.3,0.3-0.6,0.4-0.9,0.4h-5.3
		c-0.2,0-0.3-0.1-0.3-0.3v-4.8c0-0.2,0.1-0.3,0.3-0.3H109.3L109.3,33.9z"/>
	<path class="st2" d="M118.2,51.2c0,0.1,0.1,0.2,0.2,0.2h3.8c0.2,0,0.3-0.1,0.4-0.3l1.6-5.1c0.1-0.2,0.2-0.3,0.4-0.3h6.9
		c0.2,0,0.3,0.1,0.4,0.3l1.6,5.1c0.1,0.2,0.2,0.3,0.4,0.3h3.8c0.1,0,0.2-0.1,0.2-0.2L132,31.8c-0.2-0.8-0.7-1.3-1.3-1.5
		c-0.6-0.2-1.5-0.3-2.6-0.3c-1.1,0-1.9,0.1-2.6,0.3c-0.6,0.2-1.1,0.7-1.3,1.5L118.2,51.2L118.2,51.2z M130.4,41.2
		C130.4,41.3,130.4,41.3,130.4,41.2c0,0.1,0,0.1,0,0.1c0,0.1-0.1,0.2-0.2,0.2h-4.4c-0.2,0-0.2-0.1-0.2-0.2c0,0,0,0,0-0.1
		c0,0,0,0,0-0.1l2.1-6.8c0.1-0.4,0.2-0.5,0.3-0.5c0.1,0,0.2,0,0.2,0.1c0,0.1,0.1,0.2,0.1,0.4L130.4,41.2L130.4,41.2z"/>
	<path class="st2" d="M141.1,51.3h10c1.1,0,2.1-0.2,2.9-0.6c0.8-0.4,1.5-0.9,2-1.6c0.5-0.7,0.9-1.4,1.2-2.2c0.2-0.8,0.4-1.6,0.4-2.4
		v-7.1c0-0.9-0.1-1.8-0.4-2.7c-0.2-0.9-0.6-1.7-1.2-2.4c-0.5-0.7-1.2-1.3-2-1.7c-0.8-0.4-1.8-0.7-2.9-0.7h-10
		c-0.2,0-0.3,0.1-0.3,0.3V51C140.8,51.2,140.9,51.3,141.1,51.3L141.1,51.3z M145.1,34.2c0-0.2,0.1-0.3,0.3-0.3h5
		c0.4,0,0.7,0.1,1,0.3c0.3,0.2,0.6,0.4,0.9,0.7c0.3,0.3,0.5,0.6,0.7,0.9c0.2,0.3,0.3,0.7,0.3,1.1v7.9c0,0.3-0.1,0.7-0.2,1
		c-0.2,0.3-0.4,0.6-0.6,0.9c-0.3,0.3-0.5,0.5-0.9,0.7c-0.3,0.2-0.6,0.3-1,0.3h-5.2c-0.2,0-0.3-0.1-0.3-0.3V34.2L145.1,34.2z"/>
	<path class="st2" d="M161.6,30.4V51c0,0.2,0.1,0.3,0.3,0.3h3.7c0.2,0,0.3-0.1,0.3-0.3V30.4c0-0.2-0.1-0.3-0.3-0.3h-3.7
		C161.7,30.1,161.6,30.2,161.6,30.4L161.6,30.4z"/>
	<path class="st2" d="M170,40.9c0,1.2,0,2.2,0,3c0,0.9,0.1,1.5,0.2,2.1c0.2,0.8,0.3,1.5,0.5,2.1c0.2,0.6,0.4,1.1,0.7,1.5
		c0.4,0.5,0.9,1,1.5,1.4c0.6,0.4,1.2,0.7,1.9,0.8c0.5,0.1,1.1,0.2,1.8,0.2c0.8,0,1.7,0,2.7,0c1.1,0,2,0,2.7,0c0.8,0,1.4-0.1,1.8-0.2
		c0.7-0.2,1.3-0.4,1.9-0.8c0.6-0.4,1.1-0.8,1.5-1.4c0.3-0.4,0.5-0.9,0.7-1.5c0.2-0.6,0.3-1.3,0.5-2.1c0.1-0.5,0.2-1.2,0.2-2.1
		c0-0.9,0-1.9,0-3v-0.2c0-1.2,0-2.2,0-3c0-0.9-0.1-1.5-0.2-2.1c-0.2-0.8-0.3-1.5-0.5-2.1c-0.2-0.6-0.4-1.1-0.7-1.5
		c-0.4-0.5-0.9-1-1.5-1.4c-0.6-0.4-1.2-0.7-1.9-0.8c-0.5-0.1-1.1-0.2-1.8-0.2c-0.8,0-1.7,0-2.7,0c-1.1,0-2,0-2.7,0
		c-0.8,0-1.4,0.1-1.8,0.2c-0.7,0.2-1.3,0.4-1.9,0.8c-0.6,0.4-1.1,0.8-1.5,1.4c-0.3,0.4-0.5,0.9-0.7,1.5c-0.2,0.6-0.3,1.3-0.5,2.1
		c-0.1,0.5-0.2,1.2-0.2,2.1c0,0.9,0,1.9,0,3V40.9L170,40.9z M179.4,33.7c0.6,0,1.2,0,1.7,0c0.5,0,1,0.1,1.4,0.2
		c0.7,0.2,1.2,0.5,1.5,1.1c0.3,0.5,0.4,1.3,0.4,2.4v6.8c0,1-0.1,1.8-0.4,2.4c-0.3,0.5-0.8,0.9-1.5,1.1c-0.4,0.1-0.9,0.2-1.4,0.2
		c-0.5,0-1.1,0-1.7,0c-0.6,0-1.2,0-1.7,0c-0.5,0-1-0.1-1.4-0.2c-0.7-0.2-1.2-0.5-1.5-1.1c-0.3-0.5-0.4-1.3-0.4-2.4v-6.8
		c0-1,0.1-1.8,0.4-2.4c0.3-0.5,0.8-0.9,1.5-1.1c0.4-0.1,0.9-0.2,1.4-0.2C178.2,33.7,178.8,33.7,179.4,33.7L179.4,33.7z"/>
	<path class="st3" d="M83,68.6c0.4,0,0.7,0,1,0.1c0.3,0.1,0.5,0.2,0.7,0.4c0.2,0.2,0.3,0.5,0.3,0.7c0,0.3,0,0.5,0,0.8
		c0,0.2,0,0.3,0,0.5c0,0.2-0.1,0.3-0.1,0.5c-0.1,0.2-0.2,0.4-0.4,0.6c-0.2,0.2-0.4,0.3-0.6,0.3h-7.4c-0.2,0-0.2,0.1-0.2,0.2v2.5
		c0,0.2,0.1,0.2,0.2,0.2h8.3c0.3,0,0.7-0.1,1.1-0.3c0.4-0.2,0.7-0.4,0.9-0.6c0.9-0.8,1.3-1.8,1.5-3.2c0-0.1,0-0.3,0-0.4
		c0-0.2,0-0.3,0-0.5c0-0.4,0-0.7-0.1-1.1c0-0.4-0.1-0.8-0.2-1.1c-0.1-0.4-0.3-0.7-0.4-1c-0.2-0.3-0.4-0.6-0.7-0.8
		c-0.4-0.4-0.9-0.6-1.4-0.8c-0.5-0.1-1-0.2-1.5-0.2h-2.6c-0.4,0-0.7,0-1,0c-0.3,0-0.5-0.1-0.7-0.3c-0.2-0.2-0.3-0.4-0.3-0.7
		c0-0.3,0-0.5,0-0.8c0-0.2,0-0.3,0-0.5c0-0.2,0.1-0.3,0.1-0.5c0.1-0.2,0.2-0.4,0.4-0.5c0.2-0.2,0.4-0.3,0.6-0.3h6.6
		c0.2,0,0.2-0.1,0.2-0.2v-2.5c0-0.2-0.1-0.2-0.2-0.2h-7.6c-0.4,0-0.7,0.1-1.1,0.3c-0.4,0.2-0.7,0.4-1,0.6c-0.9,0.7-1.4,1.8-1.5,3.1
		c0,0.1,0,0.3,0,0.4s0,0.3,0,0.4c0,0.4,0,0.7,0.1,1.1c0.1,0.4,0.1,0.7,0.3,1.1c0.1,0.3,0.3,0.7,0.4,1c0.2,0.3,0.4,0.6,0.7,0.8
		c0.4,0.4,0.9,0.6,1.5,0.7c0.5,0.1,1,0.2,1.5,0.2H83L83,68.6z"/>
	<path class="st3" d="M90.4,70.5c0,0.4,0,0.8,0.1,1.1c0.1,0.3,0.2,0.5,0.2,0.7c0.3,0.7,0.7,1.3,1.1,1.7c0.5,0.5,1,0.8,1.6,1.1
		c0.3,0.1,0.6,0.2,0.9,0.3c0.4,0.1,0.8,0.1,1.2,0.1h5.9c0.2,0,0.2-0.1,0.2-0.2v-2.5c0-0.2-0.1-0.2-0.2-0.2h-5.9
		c-0.5,0-0.9-0.2-1.2-0.5c-0.3-0.3-0.5-0.7-0.5-1.3v-5.9c0-0.8,0.1-1.5,0.4-2c0.3-0.5,0.7-0.8,1.3-0.9h5.9c0.2,0,0.2-0.1,0.2-0.2
		v-2.5c0-0.2-0.1-0.2-0.2-0.2h-6.1c-0.7,0-1.4,0.2-2.1,0.5c-0.7,0.3-1.2,0.7-1.7,1.3c-0.2,0.2-0.3,0.4-0.5,0.7
		c-0.2,0.2-0.3,0.5-0.4,0.9c-0.2,0.6-0.3,1.2-0.3,1.9V70.5L90.4,70.5z"/>
	<path class="st3" d="M104,75.2c0,0.2,0.1,0.2,0.2,0.2h2.9c0.2,0,0.2-0.1,0.2-0.2v-6.4c0-0.2,0.1-0.2,0.2-0.2h5.4
		c0.2,0,0.2,0.1,0.2,0.2v6.4c0,0.2,0.1,0.2,0.2,0.2h2.9c0.2,0,0.2-0.1,0.2-0.2V59.1c0-0.2-0.1-0.2-0.2-0.2h-2.9
		c-0.2,0-0.2,0.1-0.2,0.2v6.3c0,0.2-0.1,0.2-0.2,0.2h-5.4c-0.2,0-0.2-0.1-0.2-0.2v-6.3c0-0.2-0.1-0.2-0.2-0.2h-2.9
		c-0.2,0-0.2,0.1-0.2,0.2V75.2L104,75.2z"/>
	<path class="st3" d="M129.2,72.5H123c-0.6,0-0.9-0.3-0.9-0.8V59.1c0-0.2-0.1-0.2-0.2-0.2H119c-0.2,0-0.2,0.1-0.2,0.2v12.3
		c0,1.3,0.3,2.3,0.8,2.9c0.5,0.6,1.4,1,2.7,1.1c0.1,0,0.2,0,0.3,0h6.6c0.2,0,0.2-0.1,0.2-0.2v-2.5C129.5,72.5,129.4,72.5,129.2,72.5
		L129.2,72.5z"/>
	<path class="st3" d="M130.6,75.3c0,0.1,0.1,0.1,0.2,0.1h3c0.2,0,0.3-0.1,0.3-0.2l1.2-4c0-0.2,0.1-0.3,0.3-0.3h5.4
		c0.2,0,0.3,0.1,0.3,0.2l1.2,4c0,0.1,0.1,0.2,0.3,0.2h3c0.1,0,0.2,0,0.2-0.1l-4.6-15.1c-0.2-0.6-0.5-1-1-1.1c-0.5-0.2-1.2-0.2-2-0.2
		c-0.8,0-1.5,0.1-2,0.2c-0.5,0.2-0.8,0.5-1,1.1L130.6,75.3L130.6,75.3z M140.1,67.6C140.1,67.6,140.1,67.6,140.1,67.6
		c0,0.1,0,0.1,0,0.1c0,0.1-0.1,0.2-0.2,0.2h-3.4c-0.1,0-0.2-0.1-0.2-0.2c0,0,0,0,0,0c0,0,0,0,0-0.1l1.6-5.3c0.1-0.3,0.2-0.4,0.3-0.4
		c0.1,0,0.1,0,0.2,0.1c0,0.1,0.1,0.2,0.1,0.3L140.1,67.6L140.1,67.6z"/>
	<path class="st3" d="M155.7,58.9h-4.7c-0.6,0-1.1,0.1-1.6,0.4c-0.5,0.3-0.9,0.7-1.3,1.1c-0.4,0.5-0.7,1-0.9,1.5
		c-0.2,0.6-0.3,1.1-0.3,1.6v6.6c0,0.6,0.1,1.2,0.3,1.8c0.2,0.6,0.5,1.2,0.9,1.7c0.4,0.5,0.9,0.9,1.4,1.3c0.6,0.3,1.2,0.5,1.9,0.5h4
		c0.9,0,1.7-0.2,2.3-0.5c0.6-0.3,1.1-0.7,1.5-1.2c0.4-0.5,0.6-1,0.8-1.5s0.2-1,0.2-1.3v-5.2c0-0.2-0.1-0.2-0.2-0.2h-7.1
		c-0.2,0-0.2,0.1-0.2,0.2v2.5c0,0.2,0.1,0.2,0.2,0.2h3.7c0.2,0,0.2,0.1,0.2,0.2v2.2c0,0.1,0,0.3-0.1,0.5c-0.1,0.2-0.2,0.3-0.3,0.5
		c-0.1,0.2-0.3,0.3-0.5,0.4c-0.2,0.1-0.5,0.2-0.8,0.2h-2.8c-0.6,0-1.1-0.3-1.5-0.8c-0.4-0.5-0.6-1.2-0.6-2.1v-6
		c0-0.1,0.1-0.3,0.2-0.5c0.1-0.2,0.3-0.4,0.4-0.6c0.2-0.2,0.3-0.3,0.5-0.4c0.2-0.1,0.3-0.2,0.5-0.2h7c0.2,0,0.2-0.1,0.2-0.2v-2.5
		c0-0.2-0.1-0.2-0.2-0.2H155.7L155.7,58.9z"/>
	<path class="st3" d="M162.2,73c0,0.3,0.1,0.6,0.2,0.9c0.1,0.3,0.3,0.5,0.5,0.8c0.2,0.2,0.5,0.4,0.7,0.6c0.3,0.1,0.5,0.2,0.8,0.2
		h8.9c0.2,0,0.2-0.1,0.2-0.2v-2.5c0-0.2-0.1-0.2-0.2-0.2h-7.6c-0.2,0-0.2-0.1-0.2-0.2v-3.4c0-0.2,0.1-0.2,0.2-0.2h7
		c0.2,0,0.2-0.1,0.2-0.2v-2.7c0-0.2-0.1-0.2-0.2-0.2h-7c-0.2,0-0.2-0.1-0.2-0.2v-3.1c0-0.2,0.1-0.3,0.2-0.3h7.6
		c0.2,0,0.2-0.1,0.2-0.2v-2.5c0-0.2-0.1-0.2-0.3-0.2h-7.8c-1.1,0-1.9,0.3-2.4,1c-0.6,0.7-0.8,1.5-0.8,2.6V73L162.2,73z"/>
	<path class="st3" d="M175.8,59.1v16.1c0,0.2,0.1,0.2,0.2,0.2h2.9c0.2,0,0.2-0.1,0.2-0.2v-5.7c0-0.2,0.1-0.2,0.2-0.2h2.8
		c0.7,0.1,1.1,0.6,1.3,1.4l1.4,4.1c0,0.1,0.1,0.2,0.2,0.4c0.1,0.2,0.2,0.2,0.3,0.2h3.2c0.1,0,0.1,0,0.1-0.1c0,0,0-0.1-0.1-0.2
		c-0.1-0.1-0.1-0.2-0.2-0.3l-1.3-3.9c-0.1-0.4-0.3-0.7-0.4-1.1c-0.1-0.3-0.4-0.8-0.7-1.2c0,0,0-0.1,0-0.1c0,0,0-0.1,0-0.1
		c0,0,0-0.1,0.1-0.1c0.4-0.2,0.7-0.5,0.9-0.7c0.2-0.3,0.4-0.5,0.7-0.8c0.3-0.6,0.5-1.6,0.5-3v-0.5c0-1.5-0.4-2.6-1.1-3.3
		c-0.4-0.4-0.8-0.7-1.2-0.9c-0.4-0.2-0.8-0.3-1.3-0.3h-8.5C175.9,58.9,175.8,58.9,175.8,59.1L175.8,59.1z M183.9,61.9
		c0.3,0,0.6,0.3,0.9,0.8c0.1,0.2,0.1,0.3,0.1,0.5c0,0.2,0,0.4,0,0.6c0,0.4-0.1,0.8-0.2,1.2c-0.1,0.4-0.3,0.6-0.5,0.8
		c-0.3,0.2-0.5,0.3-0.7,0.3h-4.1c-0.2,0-0.3-0.1-0.3-0.2v-3.8c0-0.2,0.1-0.2,0.2-0.2H183.9L183.9,61.9z"/>
	<path class="st4" d="M76.3,83.3v15.9c0,0.2,0.1,0.2,0.2,0.2h2.9c0.2,0,0.2-0.1,0.2-0.2v-5.3c0-0.2,0.1-0.2,0.2-0.2h4
		c0.9,0,1.6-0.1,2.2-0.4c0.6-0.3,1.1-0.6,1.4-1.1c0.4-0.5,0.6-1,0.8-1.7c0.2-0.7,0.3-1.4,0.3-2.2c0-0.8-0.1-1.5-0.3-2.2
		c-0.2-0.7-0.4-1.2-0.8-1.7c-0.4-0.5-0.8-0.9-1.4-1.1c-0.6-0.3-1.3-0.4-2.2-0.4h-7.3c-0.2,0-0.2,0.1-0.2,0.2V83.3L76.3,83.3z
		 M84.2,85.9c0.3,0,0.5,0.1,0.7,0.3c0.2,0.2,0.3,0.4,0.4,0.7c0.1,0.3,0.1,0.5,0.1,0.8c0,0.3,0,0.5,0,0.6c0,0.2,0,0.4,0,0.6
		c0,0.3-0.1,0.5-0.1,0.8c-0.1,0.3-0.2,0.5-0.4,0.7c-0.2,0.2-0.4,0.3-0.7,0.3h-4.4c-0.2,0-0.2-0.1-0.2-0.2v-4.4
		c0-0.2,0.1-0.2,0.2-0.2H84.2L84.2,85.9z"/>
	<path class="st4" d="M88.7,99.3c0,0.1,0.1,0.1,0.2,0.1h3c0.2,0,0.3-0.1,0.3-0.2l1.2-4c0-0.2,0.1-0.3,0.3-0.3h5.4
		c0.2,0,0.3,0.1,0.3,0.2l1.2,4c0,0.1,0.1,0.2,0.3,0.2h3c0.1,0,0.2,0,0.2-0.1l-4.6-15.1c-0.2-0.6-0.5-1-1-1.1c-0.5-0.2-1.2-0.2-2-0.2
		c-0.8,0-1.5,0.1-2,0.2c-0.5,0.2-0.8,0.5-1,1.1L88.7,99.3L88.7,99.3z M98.3,91.6C98.3,91.6,98.3,91.6,98.3,91.6c0,0.1,0,0.1,0,0.1
		c0,0.1-0.1,0.2-0.2,0.2h-3.4c-0.1,0-0.2-0.1-0.2-0.2c0,0,0,0,0,0c0,0,0,0,0-0.1l1.6-5.3c0.1-0.3,0.2-0.4,0.3-0.4
		c0.1,0,0.1,0,0.2,0.1c0,0.1,0.1,0.2,0.1,0.3L98.3,91.6L98.3,91.6z"/>
	<path class="st4" d="M106.6,83.1v16.1c0,0.2,0.1,0.2,0.2,0.2h2.9c0.2,0,0.2-0.1,0.2-0.2v-5.7c0-0.2,0.1-0.2,0.2-0.2h2.8
		c0.7,0.1,1.1,0.6,1.3,1.4l1.4,4.1c0,0.1,0.1,0.2,0.2,0.4c0.1,0.2,0.2,0.2,0.3,0.2h3.2c0.1,0,0.1,0,0.1-0.1c0,0,0-0.1-0.1-0.2
		c-0.1-0.1-0.1-0.2-0.2-0.3l-1.3-3.9c-0.1-0.4-0.3-0.7-0.4-1.1c-0.1-0.3-0.4-0.8-0.7-1.2c0,0,0-0.1,0-0.1c0,0,0-0.1,0-0.1
		c0,0,0-0.1,0.1-0.1c0.4-0.2,0.7-0.5,0.9-0.7c0.2-0.3,0.4-0.5,0.7-0.8c0.3-0.6,0.5-1.6,0.5-3v-0.5c0-1.5-0.4-2.6-1.1-3.3
		c-0.4-0.4-0.8-0.7-1.2-0.9c-0.4-0.2-0.8-0.3-1.3-0.3h-8.5C106.7,82.9,106.6,82.9,106.6,83.1L106.6,83.1z M114.6,85.9
		c0.3,0,0.6,0.3,0.9,0.8c0.1,0.2,0.1,0.3,0.1,0.5c0,0.2,0,0.4,0,0.6c0,0.4-0.1,0.8-0.2,1.2c-0.1,0.4-0.3,0.6-0.5,0.8
		c-0.3,0.2-0.5,0.3-0.7,0.3h-4.1c-0.2,0-0.3-0.1-0.3-0.2v-3.8c0-0.2,0.1-0.2,0.2-0.2H114.6L114.6,85.9z"/>
	<path class="st4" d="M121.8,99.3c0,0.1,0.1,0.1,0.2,0.1h3c0.2,0,0.3-0.1,0.3-0.2l1.2-4c0-0.2,0.1-0.3,0.3-0.3h5.4
		c0.2,0,0.3,0.1,0.3,0.2l1.2,4c0,0.1,0.1,0.2,0.3,0.2h3c0.1,0,0.2,0,0.2-0.1l-4.6-15.1c-0.2-0.6-0.5-1-1-1.1c-0.5-0.2-1.2-0.2-2-0.2
		c-0.8,0-1.5,0.1-2,0.2c-0.5,0.2-0.8,0.5-1,1.1L121.8,99.3L121.8,99.3z M131.4,91.6C131.4,91.6,131.4,91.6,131.4,91.6
		c0,0.1,0,0.1,0,0.1c0,0.1-0.1,0.2-0.2,0.2h-3.4c-0.1,0-0.2-0.1-0.2-0.2c0,0,0,0,0,0c0,0,0,0,0-0.1l1.6-5.3c0.1-0.3,0.2-0.4,0.3-0.4
		s0.1,0,0.2,0.1c0,0.1,0.1,0.2,0.1,0.3L131.4,91.6L131.4,91.6z"/>
	<path class="st4" d="M139.9,99.5h7.8c0.9,0,1.6-0.2,2.2-0.5c0.6-0.3,1.1-0.7,1.6-1.2c0.4-0.5,0.7-1.1,0.9-1.7
		c0.2-0.6,0.3-1.2,0.3-1.8v-5.6c0-0.7-0.1-1.4-0.3-2.1c-0.2-0.7-0.5-1.3-0.9-1.9c-0.4-0.5-0.9-1-1.6-1.3c-0.6-0.3-1.4-0.5-2.3-0.5
		h-7.8c-0.2,0-0.2,0.1-0.2,0.2v16.1C139.7,99.4,139.8,99.5,139.9,99.5L139.9,99.5z M143,86.1c0-0.2,0.1-0.2,0.2-0.2h3.9
		c0.3,0,0.5,0.1,0.8,0.2c0.3,0.1,0.5,0.3,0.7,0.5c0.2,0.2,0.4,0.4,0.5,0.7c0.1,0.3,0.2,0.5,0.2,0.8v6.2c0,0.3-0.1,0.5-0.2,0.8
		c-0.1,0.3-0.3,0.5-0.5,0.7c-0.2,0.2-0.4,0.4-0.7,0.5c-0.3,0.1-0.5,0.2-0.7,0.2h-4.1c-0.2,0-0.2-0.1-0.2-0.2V86.1L143,86.1z"/>
	<path class="st4" d="M155.6,83.1v16.1c0,0.2,0.1,0.2,0.2,0.2h2.9c0.2,0,0.2-0.1,0.2-0.2V83.1c0-0.2-0.1-0.2-0.2-0.2h-2.9
		C155.7,82.9,155.6,82.9,155.6,83.1L155.6,83.1z"/>
	<path class="st4" d="M162,97c0,0.3,0.1,0.6,0.2,0.9c0.1,0.3,0.3,0.5,0.5,0.8c0.2,0.2,0.5,0.4,0.7,0.6c0.3,0.1,0.5,0.2,0.8,0.2h8.9
		c0.2,0,0.2-0.1,0.2-0.2v-2.5c0-0.2-0.1-0.2-0.2-0.2h-7.6c-0.2,0-0.2-0.1-0.2-0.2v-3.4c0-0.2,0.1-0.2,0.2-0.2h7
		c0.2,0,0.2-0.1,0.2-0.2v-2.7c0-0.2-0.1-0.2-0.2-0.2h-7c-0.2,0-0.2-0.1-0.2-0.2v-3.1c0-0.2,0.1-0.3,0.2-0.3h7.6
		c0.2,0,0.2-0.1,0.2-0.2v-2.5c0-0.2-0.1-0.2-0.3-0.2h-7.8c-1.1,0-1.9,0.3-2.4,1c-0.6,0.7-0.8,1.5-0.8,2.6V97L162,97z"/>
	<path class="st4" d="M183.2,92.6c0.4,0,0.7,0,1,0.1c0.3,0.1,0.5,0.2,0.7,0.4c0.2,0.2,0.3,0.5,0.3,0.7c0,0.3,0,0.5,0,0.8
		c0,0.2,0,0.3,0,0.5c0,0.2-0.1,0.3-0.1,0.5c-0.1,0.2-0.2,0.4-0.4,0.6c-0.2,0.2-0.4,0.3-0.6,0.3h-7.4c-0.2,0-0.2,0.1-0.2,0.2v2.5
		c0,0.2,0.1,0.2,0.2,0.2h8.3c0.3,0,0.7-0.1,1.1-0.3c0.4-0.2,0.7-0.4,0.9-0.6c0.9-0.8,1.3-1.8,1.5-3.2c0-0.1,0-0.3,0-0.4
		c0-0.2,0-0.3,0-0.5c0-0.4,0-0.7-0.1-1.1c0-0.4-0.1-0.8-0.2-1.1c-0.1-0.4-0.3-0.7-0.4-1c-0.2-0.3-0.4-0.6-0.7-0.8
		c-0.4-0.4-0.9-0.6-1.4-0.8c-0.5-0.1-1-0.2-1.5-0.2h-2.6c-0.4,0-0.7,0-1,0c-0.3,0-0.5-0.1-0.7-0.3c-0.2-0.2-0.3-0.4-0.3-0.7
		c0-0.3,0-0.5,0-0.8c0-0.2,0-0.3,0-0.5c0-0.2,0.1-0.3,0.1-0.5c0.1-0.2,0.2-0.4,0.4-0.5c0.2-0.2,0.4-0.3,0.6-0.3h6.6
		c0.2,0,0.2-0.1,0.2-0.2v-2.5c0-0.2-0.1-0.2-0.2-0.2h-7.6c-0.4,0-0.7,0.1-1.1,0.3c-0.4,0.2-0.7,0.4-1,0.6c-0.9,0.7-1.4,1.8-1.5,3.1
		c0,0.1,0,0.3,0,0.4c0,0.1,0,0.3,0,0.4c0,0.4,0,0.7,0.1,1.1c0.1,0.4,0.1,0.7,0.3,1.1c0.1,0.3,0.3,0.7,0.4,1c0.2,0.3,0.4,0.6,0.7,0.8
		c0.4,0.4,0.9,0.6,1.5,0.7c0.5,0.1,1,0.2,1.5,0.2H183.2L183.2,92.6z"/>
</g>
</svg>
