<?xml version="1.0" encoding="UTF-8"?>
<svg width="147px" height="18px" viewBox="0 0 147 18" version="1.1" xmlns="http://www.w3.org/2000/svg" xmlns:xlink="http://www.w3.org/1999/xlink">
    <title>logo</title>
    <g id="确定" stroke="none" stroke-width="1" fill="none" fill-rule="evenodd">
        <g id="Our-cars展开" transform="translate(-41.000000, -19.000000)" fill="#000000">
            <g id="logo" transform="translate(40.000000, 18.000000)">
                <path d="M4.07570004,1.25 C4.28887967,1.25 4.49922334,1.2916247 4.69528414,1.37215052 L4.83947284,1.43979628 L17.849694,8.33579474 C17.9439571,8.38589855 18.0099251,8.4739014 18.0325418,8.57523956 L18.0411407,8.65335975 L18.0411407,11.3467406 C18.0411407,11.4531309 17.9940253,11.552648 17.9148507,11.6200601 L17.849694,11.6642053 L4.83947284,18.5602037 C4.65126891,18.6600099 4.44592038,18.7215958 4.23487416,18.7422379 L4.07570004,18.75 L1.65466916,18.75 C1.33813479,18.75 1.15735301,18.4079166 1.30836837,18.1525646 L1.3531481,18.0907816 L7.66031623,10.8612596 C7.77520777,10.7292754 7.93066244,10.641272 8.10051235,10.6090984 L8.20394038,10.5965886 L15.1974365,10.233055 L15.1974365,9.76694502 L8.20394038,9.403311 C8.02937909,9.39444515 7.86397946,9.32654326 7.73390938,9.21284839 L7.66031623,9.13924225 L1.3531481,1.90921839 C1.1454718,1.67129941 1.28592968,1.31091459 1.5784772,1.25687858 L1.65466916,1.25 L4.07570004,1.25 Z M34.9556669,1.25 C35.2980756,1.25 35.4817678,1.65147283 35.257188,1.90921839 L28.9501205,9.13924225 C28.8122507,9.29702107 28.6159699,9.39267197 28.4064964,9.403311 L21.4130003,9.76694502 L21.4130003,10.233055 L28.4064964,10.5965886 C28.6159699,10.6078299 28.8122507,10.7028786 28.9501205,10.8612596 L35.257188,18.0907816 C35.4817678,18.3485272 35.2980756,18.75 34.9556669,18.75 L32.5347367,18.75 C32.2682622,18.75 32.0062188,18.6849614 31.7709639,18.5602037 L18.7607428,11.6642053 C18.6428132,11.601977 18.5692961,11.4797285 18.5692961,11.3467406 L18.5692961,8.65335975 C18.5692961,8.52027151 18.6428132,8.39842451 18.7607428,8.33579474 L31.7709639,1.43979628 C32.0062188,1.3150386 32.2682622,1.25 32.5347367,1.25 L34.9556669,1.25 Z M49.1892841,5.5451872 L53.9860259,8.98489498 L58.7842504,5.5451872 L61.7723705,5.5451872 L55.4808313,10.0556566 L62.1224632,14.8188081 L59.1343431,14.8188081 L53.9860259,11.1273881 L48.8391913,14.8188081 L45.8510712,14.8188081 L52.4921938,10.0556566 L46.201164,5.5451872 L49.1892841,5.5451872 Z M80.6656967,5.56766968 C82.175719,5.56766968 83.3998301,6.78764525 83.3998301,8.29256616 C83.3998301,9.74174926 82.2647147,10.9267032 80.8322527,11.0124897 L80.6656967,11.0174626 L69.8501138,11.0159571 L69.8501138,14.7806682 L68.0855006,14.7806682 L68.0855006,9.29474271 L80.6117169,9.29474271 C81.167124,9.29474271 81.61719,8.84599646 81.61719,8.29256616 C81.61719,7.77603121 81.2251325,7.35077513 80.7212917,7.29637003 L80.6117169,7.29048997 L68.0855006,7.29048997 L68.0855006,5.56766968 L80.6656967,5.56766968 Z M104.719897,9.29473268 L104.719897,11.0162482 L91.1556842,11.0158505 L91.1556842,13.0584447 L104.719897,13.0590423 L104.719897,14.7806582 L89.3914686,14.7806582 L89.3914686,9.29473268 L104.719897,9.29473268 Z M147.231346,5.53034274 L147.231346,7.25195861 L136.223259,7.25185825 C134.61414,7.25185825 133.309764,8.55182727 133.309764,10.1555105 C133.309764,11.7019193 134.522634,12.9659204 136.052065,13.0542338 L136.223259,13.0591628 L145.465972,13.0584447 L145.465972,11.0158505 L137.438861,11.0162482 L137.438861,9.29473268 L147.231346,9.29473268 L147.231346,14.7806783 L136.223259,14.7806783 C133.660129,14.7806783 131.582413,12.7098814 131.582413,10.1555105 C131.582413,7.67017666 133.549338,5.64263094 136.016533,5.53484931 L136.223259,5.53034274 L147.231346,5.53034274 Z M125.838054,5.53032267 L125.838054,14.7806582 L124.073542,14.7806582 L124.073542,5.53032267 L125.838054,5.53032267 Z M112.787399,5.53032267 L124.073491,12.8918389 L124.073491,14.7806682 L123.819102,14.7806682 L112.479835,7.42056717 L112.479885,14.7806682 L110.715373,14.7806682 L110.715373,5.53032267 L112.787399,5.53032267 Z M104.719897,5.53032267 L104.719897,7.25193854 L89.3914686,7.25193854 L89.3914686,5.53032267 L104.719897,5.53032267 Z" id="形状"></path>
            </g>
        </g>
    </g>
</svg>