<svg width="256" height="70" viewBox="0 0 256 70" fill="none" xmlns="http://www.w3.org/2000/svg">
<path d="M0 14.0049H14.8241V56.0008H0V14.0049ZM15.7162 14.0049L25.2417 56.0008H41.3746L33.397 20.7479C33.0638 18.8571 32.0611 17.147 30.57 15.9263C29.0689 14.6555 27.153 13.972 25.1811 14.0039L15.7162 14.0049ZM42.2687 56.0008H57.0937V14.0049H42.2687V56.0008ZM75.6675 56.0008H90.4918V14.0049H75.6675V56.0008ZM120 14.0049H103.688C102.735 15.5435 101.882 16.9338 101.128 18.1759C100.373 19.418 99.5498 20.7686 98.6568 22.2277C97.7651 23.6867 96.9023 25.0961 96.0681 26.4558C95.234 27.8156 94.5096 29.0088 93.8951 30.0353C93.2792 31.0606 92.8525 31.7506 92.615 32.1055C92.0196 32.9606 91.6789 33.9651 91.6317 35.0038C91.7213 36.0527 92.0581 37.0659 92.615 37.9613C92.8525 38.3155 93.2792 39.0057 93.8951 40.0316C94.5109 41.0575 95.2353 42.2503 96.0681 43.6101C96.9003 44.9692 97.7631 46.3687 98.6568 47.8087C99.5505 49.2486 100.374 50.5893 101.128 51.8308C101.882 53.073 102.735 54.4633 103.688 56.0018H120C118.889 54.1879 117.896 52.5613 117.023 51.122C116.15 49.6827 115.217 48.1646 114.225 46.5675C113.233 44.9692 112.29 43.4409 111.397 41.9825C110.504 40.5241 109.78 39.3313 109.224 38.404C108.669 37.478 108.371 36.9952 108.331 36.9558C107.949 36.369 107.714 35.6995 107.647 35.0038C107.666 34.3257 107.883 33.6678 108.272 33.1101L120 14.0049Z" fill="white"/>
<path d="M66.4389 29.857C64.9571 29.8713 63.499 29.4835 62.22 28.7351C60.9577 28.0055 59.9092 26.9569 59.1797 25.6945C58.4303 24.4149 58.0424 22.9561 58.0572 21.4733C58.0402 19.9995 58.4284 18.5494 59.1797 17.2814C59.917 16.0327 60.9643 14.9955 62.22 14.2703C63.4997 13.5226 64.9579 13.1349 66.4399 13.1484C67.9133 13.1325 69.3628 13.5206 70.6313 14.2703C71.8744 15.0018 72.9106 16.0382 73.6421 17.2814C74.3925 18.5498 74.7806 19.9996 74.7645 21.4733C74.7783 22.956 74.3905 24.4145 73.6421 25.6945C72.9183 26.9514 71.8809 27.9991 70.6313 28.7351C69.363 29.4861 67.9127 29.8743 66.4389 29.857Z" fill="white"/>
<path d="M162.166 14.0176H149.212C149.212 14.0176 156.573 26.1015 156.656 26.2536C156.933 26.6031 157.088 27.034 157.097 27.4801C157.106 27.9262 156.968 28.3627 156.704 28.7228L149.212 41.0043H162.168C162.168 41.0043 168.416 30.788 169.27 29.3697C169.675 28.8264 169.892 28.1651 169.885 27.4873C169.879 26.8095 169.651 26.1523 169.236 25.6166C168.314 24.0472 168.312 24.0482 162.166 14.0176Z" fill="#FFE100"/>
<path d="M147.538 14.0177H136V55.9941H147.538V14.0177Z" fill="#FFE100"/>
<path d="M202.743 20.9717C202.307 20.229 198.451 14.0176 198.451 14.0176H170.722L176.779 24.1776H191.385L185.36 34.0542L192.076 45.3381L185.594 55.991H197.432C199.335 52.8779 202.181 48.0621 202.775 47.0754C203.183 46.5301 203.401 45.866 203.394 45.1851C203.388 44.5043 203.158 43.8443 202.741 43.3065C202.148 42.2951 198.978 37.267 197.083 34.1717C197.083 34.1717 202.181 25.7252 202.775 24.7386C203.183 24.1936 203.4 23.5301 203.394 22.8496C203.389 22.1692 203.16 21.5095 202.743 20.9717Z" fill="#FFE100"/>
<path d="M176.07 35.4181C174.245 38.3989 171.193 43.3944 170.621 44.3683C170.219 44.8862 169.997 45.522 169.991 46.1779C169.985 46.8338 170.195 47.4735 170.588 47.9989C171.16 48.949 174.236 53.9841 176.07 56.9866C177.903 53.9871 180.98 48.952 181.552 47.9989C181.944 47.4735 182.154 46.8339 182.148 46.1781C182.142 45.5222 181.921 44.8865 181.519 44.3683C180.947 43.3944 177.894 38.3989 176.07 35.4181Z" fill="#FFE100"/>
<path d="M256 56L241.5 34.092L254.747 14H248.12L238.497 29.9935L227.939 14H220.657L234.262 34.3838L220 55.999H226.746L237.364 38.7376L248.776 55.999L256 56Z" fill="white"/>
</svg>
