<?xml version="1.0" encoding="utf-8"?>
<!-- Generator: Adobe Illustrator 26.0.2, SVG Export Plug-In . SVG Version: 6.00 Build 0)  -->
<svg version="1.1" id="Layer_1" xmlns="http://www.w3.org/2000/svg" xmlns:xlink="http://www.w3.org/1999/xlink" x="0px" y="0px"
	 viewBox="0 0 486 400" style="enable-background:new 0 0 486 400;" xml:space="preserve">
<style type="text/css">
	.st0{display:none;}
	.st1{display:inline;fill:url(#SVGID_1_);}
	.st2{display:inline;}
	.st3{fill:#FFFFFF;}
	.st4{clip-path:url(#SVGID_00000022533282397561932840000002929498595983815077_);}
	
		.st5{clip-path:url(#SVGID_00000176001210318798311880000008655990373984320930_);fill:url(#SVGID_00000062188746978710535360000005119547167318016184_);}
	.st6{clip-path:url(#SVGID_00000076578837391840599940000011943353295414722720_);fill:#FFFFFF;}
	.st7{clip-path:url(#SVGID_00000054248559816735536030000014209701413990146233_);}
	
		.st8{clip-path:url(#SVGID_00000173878747731943602390000004620294174407141284_);fill:url(#SVGID_00000016050059189984645890000015745289916274677411_);}
	.st9{clip-path:url(#SVGID_00000132084746231675418800000000734063890726377862_);fill:#FFFFFF;}
</style>
<g class="st0">
	<radialGradient id="SVGID_1_" cx="91.4234" cy="327.6805" r="348.1759" gradientUnits="userSpaceOnUse">
		<stop  offset="0" style="stop-color:#A6D3B1"/>
		<stop  offset="4.391950e-03" style="stop-color:#A6D3B1"/>
		<stop  offset="0.2308" style="stop-color:#A6D3B1"/>
		<stop  offset="1" style="stop-color:#3FB6AD"/>
	</radialGradient>
	<path class="st1" d="M428.8,276.6c-7,23.2-32.1,43-72.5,57.2c-20.3,7.1-43.6,12.5-67.9,16.1c-73.5,12-156.6,7.1-192.9-12.8
		C25.7,298.9,6.2,123.4,203,56.8c7.8-2.8,15.8-5.4,24.1-7.8c31.9-9.1,70-6.8,104.8,6.2c52.4,19.7,89.8,60.3,102.6,111.3
		C442.7,199.8,440.8,236.8,428.8,276.6z"/>
	<g class="st2">
		<path class="st3" d="M91.6,140.3H103v62.2h31.9v10.1H91.6V140.3z"/>
		<path class="st3" d="M142.8,187.1v-46.8h11.4v46.2c0,11.6,5.7,16.8,16.3,16.8c10.4,0,16.2-5.2,16.2-16.8v-46.2H198v46.8
			c0,17.7-11.9,26.5-27.5,26.5C154.7,213.6,142.8,204.8,142.8,187.1z"/>
		<path class="st3" d="M209.8,176.5c0-21.4,16.4-37.1,37.1-37.1c13.4,0,21.5,4.8,27.4,11.5l-7.9,7.4c-4.4-4.8-9.4-8.6-19.9-8.6
			c-14.7,0-25,11.5-25,26.8s10.4,26.8,26.9,26.8c7.9,0,13.4-1.8,17.5-4.6v-8.2h-19.4v-10.1h29.9v23.7c-6.1,5-14.5,9.5-28.1,9.5
			C226.3,213.6,209.8,197.8,209.8,176.5z"/>
		<path class="st3" d="M300.8,165.1v47.5h-10.6v-73.4h0.9l46.4,48.6v-47.5h10.6v73.4h-0.9L300.8,165.1z"/>
		<path class="st3" d="M369.6,212.6h-11.5l31.7-73.8h0.6l31.8,73.8h-12l-4.1-10.1c0,0-32.2,0-32.3,0L369.6,212.6z M390,163.8
			l-12,28.6h23.8C401.9,192.4,390,163.8,390,163.8z"/>
		<path class="st3" d="M116.7,221.8h5.2l-18.1,23.1l20.2,25.5h-5.6l-17.6-22.1l-6.2,7.7v14.4H90v-48.6h4.6v28L116.7,221.8z"/>
		<path class="st3" d="M132,221.8h4.6v44.4h22.9l-1.7,4.1H132V221.8z M168.1,270.4h-4.6l20.4-49.7h0.4l20.5,49.7h-4.8l-3.4-8.4
			h-25.1L168.1,270.4z M184.1,230.9l-10.9,26.9h21.7C194.9,257.8,184.1,230.9,184.1,230.9z"/>
		<path class="st3" d="M212.9,259.1c2.6,4.9,7,7.6,12.7,7.6c6.6,0,10.6-3.3,10.6-8.4c0-5.4-3.3-7.8-9.1-10.5l-3.9-1.9
			c-7-3.3-11.2-6.4-11.2-13.2c0-6.9,5.4-11.6,12.5-11.6c6.1,0,10.3,2.3,13.3,7.1l-3.6,2.3c-2.2-3.6-5.2-5.4-9.6-5.4
			c-4.8,0-8,3.1-8,7.4c0,4.6,2.6,6.4,8.6,9.1l3.9,1.9c7.8,3.7,11.9,7.3,11.9,14.6c0,8-6.1,12.7-15.1,12.7c-7.9,0-13.6-3.9-16.7-9.8
			L212.9,259.1z"/>
		<path class="st3" d="M250.4,259.1c2.6,4.9,7,7.6,12.7,7.6c6.6,0,10.6-3.3,10.6-8.4c0-5.4-3.3-7.8-9.1-10.5l-3.9-1.9
			c-7-3.3-11.2-6.4-11.2-13.2c0-6.9,5.4-11.6,12.5-11.6c6.1,0,10.3,2.3,13.3,7.1l-3.6,2.3c-2.2-3.6-5.2-5.4-9.6-5.4
			c-4.8,0-8,3.1-8,7.4c0,4.6,2.6,6.4,8.6,9.1l3.9,1.9c7.8,3.7,11.9,7.3,11.9,14.6c0,8-6.1,12.7-15.1,12.7c-7.9,0-13.6-3.9-16.7-9.8
			L250.4,259.1z"/>
		<path class="st3" d="M288.4,221.8h4.7v48.6h-4.7V221.8z"/>
		<path class="st3" d="M332.5,221.8h5.2l-18.1,23.1l20.2,25.5h-5.6l-17.6-22.1l-6.2,7.7v14.4h-4.6v-48.6h4.6v28L332.5,221.8z"/>
		<path class="st3" d="M347.8,221.8h29.3v4.1h-24.6v24.3h22v4.1h-22v11.9h25.6v4.1h-30.3V221.8z"/>
		<path class="st3" d="M417.8,270.4h-5.6l-9.6-12.4c-1.3,0.2-2.6,0.3-4,0.3h-5.9v12.1h-4.6v-48.6h10.6c13.2,0,20.1,7.8,20.1,18.3
			c0,7.8-3.9,14.1-11.4,16.8L417.8,270.4z M398.2,254.2c11.1,0,15.5-5.9,15.5-14.1c0-8.1-4.5-14.1-15.5-14.1h-5.6v28.2H398.2z"/>
	</g>
	<g class="st2">
		<path class="st3" d="M230.7,281.2h-4.3v-3.5h8.2v25h-3.9V281.2z"/>
		<path class="st3" d="M239.4,290.2c0-7.6,5.3-12.8,12-12.8c6.6,0,11.9,5.3,11.9,12.8s-5.3,12.8-11.9,12.8
			C244.7,303.1,239.4,297.8,239.4,290.2z M259.3,290.2c0-5.5-3.1-9.3-7.9-9.3c-4.8,0-8,3.8-8,9.3c0,5.5,3.2,9.3,8,9.3
			C256.2,299.5,259.3,295.7,259.3,290.2z"/>
		<path class="st3" d="M279.1,298.6H266V296l16.7-18.8h0.3v18.2h3v3.2h-3v4.2h-3.9V298.6z M273,295.4h6.1v-7.5
			c0-1.1,0.2-2.6,0.2-2.6s-0.7,1.1-1.6,2.2l-5.3,6.3c-0.7,0.9-1.8,1.8-1.8,1.8S271.8,295.4,273,295.4z"/>
		<path class="st3" d="M289.1,300.4c0-1.5,1.2-2.5,2.5-2.5c1.3,0,2.5,1,2.5,2.5c0,1.5-1.2,2.5-2.5,2.5
			C290.3,303,289.1,301.9,289.1,300.4z"/>
		<path class="st3" d="M308.9,281.2h-13v-3.5h18.7v0.3l-12.1,24.7h-4.1L308.9,281.2z"/>
		<path class="st3" d="M326.8,277.7h15.5v3.4h-11.6v10h10.6v3.5h-10.6v8.1h-3.9L326.8,277.7z"/>
		<path class="st3" d="M348.5,277.4h0.4l8.6,13.3c0.7,1.1,1.5,2.6,1.5,2.6s0.8-1.5,1.5-2.6l8.6-13.3h0.4l2.4,25.3h-3.9l-1.2-12.3
			c-0.1-1.5-0.2-4-0.2-4s-1,2.2-1.9,3.5l-5.6,9h-0.4l-5.6-9c-0.9-1.3-2-3.5-2-3.5s-0.1,2.5-0.2,4l-1.2,12.3h-3.6L348.5,277.4z"/>
	</g>
</g>
<g class="st0">
	<g class="st2">
		<defs>
			<rect id="SVGID_00000137125707879557863870000015996630594788434576_" x="81" y="92" width="307" height="224"/>
		</defs>
		<clipPath id="SVGID_00000087408665220149215220000013677153785273314228_">
			<use xlink:href="#SVGID_00000137125707879557863870000015996630594788434576_"  style="overflow:visible;"/>
		</clipPath>
		<g style="clip-path:url(#SVGID_00000087408665220149215220000013677153785273314228_);">
			<defs>
				<path id="SVGID_00000002384406864463352180000017624768030331056061_" d="M236.4,95.9c-5.8,1.7-11.5,3.5-17,5.5
					C81,148.2,94.7,271.6,143.8,298.5c25.5,14,84,17.4,135.7,9c17.1-2.6,33.5-6.3,47.8-11.4c28.4-10,46-23.9,51-40.3
					c8.4-28,9.8-54.1,4-77.4c-9-35.9-35.3-64.4-72.1-78.3c-14.5-5.5-30-8.3-44.8-8.3C255.2,92,245.4,93.3,236.4,95.9"/>
			</defs>
			<clipPath id="SVGID_00000072975410139352078370000004630461850447517573_">
				<use xlink:href="#SVGID_00000002384406864463352180000017624768030331056061_"  style="overflow:visible;"/>
			</clipPath>
			
				<radialGradient id="SVGID_00000045576466089119278730000003694246738039526574_" cx="-439.2914" cy="-186.9173" r="1" gradientTransform="matrix(210 -126 -126 -210 68840.5312 -94311.4766)" gradientUnits="userSpaceOnUse">
				<stop  offset="0" style="stop-color:#A8D4B3"/>
				<stop  offset="4.391950e-03" style="stop-color:#A8D4B3"/>
				<stop  offset="0.2308" style="stop-color:#A8D4B3"/>
				<stop  offset="1" style="stop-color:#44B8AF"/>
			</radialGradient>
			
				<polygon style="clip-path:url(#SVGID_00000072975410139352078370000004630461850447517573_);fill:url(#SVGID_00000045576466089119278730000003694246738039526574_);" points="
				-17.8,151.3 306.8,-43.5 486.8,256.7 162.3,451.4 			"/>
		</g>
		<g style="clip-path:url(#SVGID_00000087408665220149215220000013677153785273314228_);">
			<defs>
				<rect id="SVGID_00000148633224496594359170000017377851659815409795_" x="76.4" y="65.4" width="348.6" height="273.9"/>
			</defs>
			<clipPath id="SVGID_00000043447582848885403860000008949695428336535204_">
				<use xlink:href="#SVGID_00000148633224496594359170000017377851659815409795_"  style="overflow:visible;"/>
			</clipPath>
			<polygon style="clip-path:url(#SVGID_00000043447582848885403860000008949695428336535204_);fill:#FFFFFF;" points="139.1,167.1 
				147.1,167.1 147.1,210.8 169.5,210.8 169.5,217.9 139.1,217.9 			"/>
			<path style="clip-path:url(#SVGID_00000043447582848885403860000008949695428336535204_);fill:#FFFFFF;" d="M175,200v-32.9h8
				v32.5c0,8.2,4,11.8,11.4,11.8c7.3,0,11.4-3.7,11.4-11.8v-32.5h8V200c0,12.4-8.4,18.6-19.4,18.6C183.4,218.6,175,212.4,175,200"/>
			<path style="clip-path:url(#SVGID_00000043447582848885403860000008949695428336535204_);fill:#FFFFFF;" d="M222.2,192.5
				c0-15,11.5-26.1,26.1-26.1c9.4,0,15.1,3.4,19.3,8.1l-5.5,5.2c-3.1-3.4-6.6-6.1-14-6.1c-10.3,0-17.6,8.1-17.6,18.9
				c0,10.8,7.3,18.9,18.9,18.9c5.5,0,9.4-1.3,12.3-3.2v-5.8h-13.6v-7.1h21v16.7c-4.3,3.5-10.2,6.7-19.8,6.7
				C233.8,218.6,222.2,207.5,222.2,192.5"/>
			<polygon style="clip-path:url(#SVGID_00000043447582848885403860000008949695428336535204_);fill:#FFFFFF;" points="286.2,184.5 
				286.2,217.9 278.7,217.9 278.7,166.3 279.3,166.3 312,200.5 312,167.1 319.4,167.1 319.4,218.7 318.8,218.7 			"/>
			<path style="clip-path:url(#SVGID_00000043447582848885403860000008949695428336535204_);fill:#FFFFFF;" d="M334.6,217.9h-8.1
				l22.3-51.9h0.4l22.4,51.9h-8.5l-2.9-7.1h-22.7L334.6,217.9z M348.9,183.6l-8.5,20.1h16.8C357.3,203.7,348.9,183.6,348.9,183.6"/>
			<polygon style="clip-path:url(#SVGID_00000043447582848885403860000008949695428336535204_);fill:#FFFFFF;" points="156.7,224.4 
				160.3,224.4 147.6,240.6 161.8,258.6 157.9,258.6 145.5,243 141.2,248.4 141.2,258.6 137.9,258.6 137.9,224.4 141.2,224.4 
				141.2,244.1 			"/>
			<path style="clip-path:url(#SVGID_00000043447582848885403860000008949695428336535204_);fill:#FFFFFF;" d="M167.5,224.4h3.3
				v31.2h16.1l-1.2,2.9h-18.1V224.4z M192.9,258.6h-3.3l14.4-35h0.3l14.4,35h-3.4l-2.4-5.9h-17.6L192.9,258.6z M204.1,230.8
				l-7.7,18.9h15.3C211.7,249.7,204.1,230.8,204.1,230.8"/>
			<path style="clip-path:url(#SVGID_00000043447582848885403860000008949695428336535204_);fill:#FFFFFF;" d="M224.4,250.6
				c1.8,3.4,4.9,5.4,8.9,5.4c4.7,0,7.4-2.3,7.4-5.9c0-3.8-2.3-5.5-6.4-7.4l-2.8-1.3c-4.9-2.3-7.9-4.5-7.9-9.3c0-4.9,3.8-8.1,8.8-8.1
				c4.3,0,7.2,1.6,9.3,5l-2.5,1.6c-1.6-2.6-3.7-3.8-6.8-3.8c-3.4,0-5.6,2.2-5.6,5.2c0,3.3,1.9,4.5,6,6.4l2.8,1.3
				c5.5,2.6,8.3,5.1,8.3,10.2c0,5.6-4.3,8.9-10.6,8.9c-5.6,0-9.5-2.7-11.8-6.9L224.4,250.6z"/>
			<path style="clip-path:url(#SVGID_00000043447582848885403860000008949695428336535204_);fill:#FFFFFF;" d="M250.7,250.6
				c1.8,3.4,4.9,5.4,8.9,5.4c4.7,0,7.4-2.3,7.4-5.9c0-3.8-2.3-5.5-6.4-7.4l-2.8-1.3c-4.9-2.3-7.9-4.5-7.9-9.3c0-4.9,3.8-8.1,8.8-8.1
				c4.3,0,7.2,1.6,9.3,5l-2.5,1.6c-1.6-2.6-3.7-3.8-6.8-3.8c-3.4,0-5.6,2.2-5.6,5.2c0,3.3,1.9,4.5,6,6.4l2.8,1.3
				c5.5,2.6,8.3,5.1,8.3,10.2c0,5.6-4.3,8.9-10.6,8.9c-5.6,0-9.5-2.7-11.8-6.9L250.7,250.6z"/>
			
				<rect x="277.4" y="224.4" style="clip-path:url(#SVGID_00000043447582848885403860000008949695428336535204_);fill:#FFFFFF;" width="3.3" height="34.2"/>
			<polygon style="clip-path:url(#SVGID_00000043447582848885403860000008949695428336535204_);fill:#FFFFFF;" points="308.5,224.4 
				312.2,224.4 299.4,240.6 313.6,258.6 309.7,258.6 297.3,243 293,248.4 293,258.6 289.7,258.6 289.7,224.4 293,224.4 293,244.1 
							"/>
			<polygon style="clip-path:url(#SVGID_00000043447582848885403860000008949695428336535204_);fill:#FFFFFF;" points="319.2,224.4 
				339.8,224.4 339.8,227.3 322.5,227.3 322.5,244.4 338,244.4 338,247.3 322.5,247.3 322.5,255.6 340.5,255.6 340.5,258.6 
				319.2,258.6 			"/>
			<path style="clip-path:url(#SVGID_00000043447582848885403860000008949695428336535204_);fill:#FFFFFF;" d="M368.5,258.6h-4
				l-6.8-8.7c-0.9,0.2-1.8,0.2-2.8,0.2h-4.2v8.5h-3.3v-34.2h7.4c9.3,0,14.1,5.5,14.1,12.9c0,5.5-2.7,9.9-8,11.8L368.5,258.6z
				 M354.7,247.2c7.8,0,10.9-4.2,10.9-9.9s-3.2-9.9-10.9-9.9h-4v19.8H354.7z"/>
		</g>
	</g>
</g>
<g>
	<g>
		<defs>
			<rect id="SVGID_00000180333497116909814180000002591366905654808203_" x="7" y="41" width="439" height="320.2"/>
		</defs>
		<clipPath id="SVGID_00000044863214919526522950000005161957374591855023_">
			<use xlink:href="#SVGID_00000180333497116909814180000002591366905654808203_"  style="overflow:visible;"/>
		</clipPath>
		<g style="clip-path:url(#SVGID_00000044863214919526522950000005161957374591855023_);">
			<defs>
				<path id="SVGID_00000123401331663912064650000003837359063592326846_" d="M229.2,46.5c-8.3,2.4-16.4,5-24.2,7.8
					C7,121.3,26.6,297.8,96.8,336.3c36.5,20,120.1,24.9,194,12.9c24.4-3.6,47.9-9.1,68.3-16.2c40.6-14.3,65.8-34.2,72.9-57.6
					c12.1-40.1,14-77.3,5.7-110.6c-12.8-51.3-50.4-92.1-103.1-112C313.7,45,291.7,41,270.5,41C256.1,41,242.1,42.8,229.2,46.5"/>
			</defs>
			<clipPath id="SVGID_00000152942971296267687680000015398453999392487066_">
				<use xlink:href="#SVGID_00000123401331663912064650000003837359063592326846_"  style="overflow:visible;"/>
			</clipPath>
			
				<radialGradient id="SVGID_00000063616608380277801750000015764878508178888639_" cx="-439.5336" cy="-186.938" r="1.4297" gradientTransform="matrix(210 -126 -126 -210 68840.5312 -94311.4766)" gradientUnits="userSpaceOnUse">
				<stop  offset="0" style="stop-color:#A8D4B3"/>
				<stop  offset="4.391950e-03" style="stop-color:#A8D4B3"/>
				<stop  offset="0.2308" style="stop-color:#A8D4B3"/>
				<stop  offset="1" style="stop-color:#44B8AF"/>
			</radialGradient>
			
				<polygon style="clip-path:url(#SVGID_00000152942971296267687680000015398453999392487066_);fill:url(#SVGID_00000063616608380277801750000015764878508178888639_);" points="
				-134.3,125.8 329.8,-152.7 587.2,276.4 123.2,554.9 			"/>
		</g>
		<g style="clip-path:url(#SVGID_00000044863214919526522950000005161957374591855023_);">
			<defs>
				<rect id="SVGID_00000124849293002933324930000011899802970949715603_" x="0.4" y="3" width="498.3" height="391.7"/>
			</defs>
			<clipPath id="SVGID_00000041287880785168100070000009200260776697881791_">
				<use xlink:href="#SVGID_00000124849293002933324930000011899802970949715603_"  style="overflow:visible;"/>
			</clipPath>
			<polygon style="clip-path:url(#SVGID_00000041287880785168100070000009200260776697881791_);fill:#FFFFFF;" points="90,148.3 
				101.5,148.3 101.5,210.9 133.5,210.9 133.5,221 90,221 			"/>
			<path style="clip-path:url(#SVGID_00000041287880785168100070000009200260776697881791_);fill:#FFFFFF;" d="M141.5,195.4v-47.1
				h11.4v46.4c0,11.7,5.8,16.9,16.4,16.9c10.5,0,16.3-5.2,16.3-16.9v-46.4H197v47.1c0,17.8-12,26.6-27.7,26.6
				C153.4,222,141.5,213.1,141.5,195.4"/>
			<path style="clip-path:url(#SVGID_00000041287880785168100070000009200260776697881791_);fill:#FFFFFF;" d="M208.9,184.7
				c0-21.5,16.5-37.3,37.3-37.3c13.5,0,21.6,4.8,27.6,11.6l-7.9,7.5c-4.4-4.8-9.4-8.7-20-8.7c-14.8,0-25.1,11.6-25.1,27
				c0,15.4,10.5,27,27.1,27c7.9,0,13.5-1.8,17.6-4.6v-8.2H246v-10.2H276v23.9c-6.1,5-14.5,9.5-28.2,9.5
				C225.4,222,208.9,206.2,208.9,184.7"/>
			<polygon style="clip-path:url(#SVGID_00000041287880785168100070000009200260776697881791_);fill:#FFFFFF;" points="300.4,173.2 
				300.4,221 289.7,221 289.7,147.2 290.6,147.2 337.2,196.1 337.2,148.3 347.9,148.3 347.9,222.1 347.1,222.1 			"/>
			<path style="clip-path:url(#SVGID_00000041287880785168100070000009200260776697881791_);fill:#FFFFFF;" d="M369.5,221H358
				l31.9-74.2h0.6l32,74.2h-12.1l-4.2-10.2h-32.5L369.5,221z M390.1,172L378,200.7h24C402,200.7,390.1,172,390.1,172"/>
			<polygon style="clip-path:url(#SVGID_00000041287880785168100070000009200260776697881791_);fill:#FFFFFF;" points="115.2,230.3 
				120.4,230.3 102.2,253.5 122.5,279.1 116.9,279.1 99.3,256.9 93,264.6 93,279.1 88.3,279.1 88.3,230.3 93,230.3 93,258.4 			"/>
			<path style="clip-path:url(#SVGID_00000041287880785168100070000009200260776697881791_);fill:#FFFFFF;" d="M130.6,230.3h4.7V275
				h23l-1.7,4.2h-25.9V230.3z M166.9,279.1h-4.7l20.5-50h0.4l20.6,50h-4.8l-3.4-8.5h-25.2L166.9,279.1z M183,239.4l-11,27.1h21.8
				C193.9,266.5,183,239.4,183,239.4"/>
			<path style="clip-path:url(#SVGID_00000041287880785168100070000009200260776697881791_);fill:#FFFFFF;" d="M211.9,267.8
				c2.6,4.9,7,7.7,12.8,7.7c6.7,0,10.6-3.3,10.6-8.4c0-5.4-3.3-7.8-9.2-10.6l-3.9-1.9c-7-3.3-11.3-6.5-11.3-13.3
				c0-7,5.4-11.6,12.6-11.6c6.1,0,10.3,2.3,13.4,7.2l-3.6,2.3c-2.2-3.7-5.2-5.4-9.7-5.4c-4.8,0-8,3.1-8,7.4c0,4.7,2.7,6.4,8.6,9.2
				l4,1.9c7.8,3.7,11.9,7.3,11.9,14.7c0,8-6.1,12.8-15.2,12.8c-8,0-13.6-3.9-16.8-9.8L211.9,267.8z"/>
			<path style="clip-path:url(#SVGID_00000041287880785168100070000009200260776697881791_);fill:#FFFFFF;" d="M249.7,267.8
				c2.6,4.9,7,7.7,12.8,7.7c6.7,0,10.6-3.3,10.6-8.4c0-5.4-3.3-7.8-9.2-10.6l-3.9-1.9c-7-3.3-11.3-6.5-11.3-13.3
				c0-7,5.4-11.6,12.6-11.6c6.1,0,10.3,2.3,13.4,7.2l-3.6,2.3c-2.2-3.7-5.2-5.4-9.7-5.4c-4.8,0-8,3.1-8,7.4c0,4.7,2.7,6.4,8.6,9.2
				l4,1.9c7.8,3.7,11.9,7.3,11.9,14.7c0,8-6.1,12.8-15.2,12.8c-8,0-13.6-3.9-16.8-9.8L249.7,267.8z"/>
			
				<rect x="287.9" y="230.3" style="clip-path:url(#SVGID_00000041287880785168100070000009200260776697881791_);fill:#FFFFFF;" width="4.7" height="48.8"/>
			<polygon style="clip-path:url(#SVGID_00000041287880785168100070000009200260776697881791_);fill:#FFFFFF;" points="332.2,230.3 
				337.5,230.3 319.2,253.5 339.6,279.1 334,279.1 316.3,256.9 310.1,264.6 310.1,279.1 305.4,279.1 305.4,230.3 310.1,230.3 
				310.1,258.4 			"/>
			<polygon style="clip-path:url(#SVGID_00000041287880785168100070000009200260776697881791_);fill:#FFFFFF;" points="347.6,230.3 
				377.1,230.3 377.1,234.4 352.3,234.4 352.3,258.9 374.4,258.9 374.4,263 352.3,263 352.3,275 378.1,275 378.1,279.1 347.6,279.1 
							"/>
			<path style="clip-path:url(#SVGID_00000041287880785168100070000009200260776697881791_);fill:#FFFFFF;" d="M418,279.1h-5.7
				l-9.7-12.5c-1.3,0.2-2.6,0.3-4,0.3h-6v12.2H388v-48.8h10.6c13.3,0,20.2,7.8,20.2,18.4c0,7.8-3.9,14.2-11.4,16.9L418,279.1z
				 M398.3,262.8c11.1,0,15.6-6,15.6-14.1c0-8.2-4.5-14.2-15.6-14.2h-5.7v28.4H398.3z"/>
		</g>
	</g>
</g>
</svg>
