<?xml version="1.0" encoding="utf-8"?>
<!-- Generator: Adobe Illustrator 24.0.3, SVG Export Plug-In . SVG Version: 6.00 Build 0)  -->
<svg version="1.1" id="Layer_1" xmlns="http://www.w3.org/2000/svg" xmlns:xlink="http://www.w3.org/1999/xlink" x="0px" y="0px"
	 viewBox="0 0 1000 400" style="enable-background:new 0 0 1000 400;" xml:space="preserve">
<style type="text/css">
	.st0{fill:#FFFFFF;}
</style>
<g>
	<path class="st0" d="M603,263c-9.4-1-14.1,6.9-15,15.4c-0.9,8.5,2.1,17.2,11.6,18.1c9.4,1,14.1-6.9,15-15.4
		C615.4,272.5,612.4,263.9,603,263z"/>
	<path class="st0" d="M552.1,258.5l-6.6-0.7l-1.5,14.7l6.6,0.7c5.2,0.5,8.4-2.7,8.8-6.5C559.9,261.9,557,259,552.1,258.5z"/>
	<polygon class="st0" points="505.3,255.2 496.7,274.3 509.5,275.6 505.5,255.3 	"/>
	<path class="st0" d="M738.3,200.8l-8-6.6c-2.9-2.5-3.3-6.9-0.8-9.8l5.8-6.6c2.8-3.2,2-8.2-1.7-10.4l-9.9-5.9l-0.1-0.1
		c-3.2-1.9-4.3-6-2.5-9.3l4.3-7.5c2-3.6,0.5-8.2-3.4-9.8L710,130c-3.3-1.3-5.1-5-4-8.5l2.8-8.6c1.2-3.8-1-7.8-4.9-8.8l-13.9-3.4
		c-3.3-0.8-5.5-3.9-5.2-7.3l0.9-9.8c0.4-3.8-2.4-7.1-6.2-7.5l-15.3-1.5c-3.2-0.3-5.8-2.8-6.2-6l-1.3-10.8c-0.4-3.6-3.5-6.2-7.1-6.1
		l-16,0.7c-3.1,0.1-5.8-1.8-6.8-4.7L623,36.5c-1.1-3.3-4.4-5.2-7.8-4.6l-16,3.1c-2.9,0.6-5.8-0.8-7.3-3.3l-6.6-11.6
		c-1.7-2.9-5.1-4.2-8.3-3.1l-15.2,5.4c-2.7,1-5.7,0.2-7.5-2l-9.4-11.1c-2.1-2.5-5.7-3.1-8.5-1.6l-13.6,7.5c-2.5,1.4-5.5,1.1-7.7-0.7
		l-11.9-9.9c-2.5-2.1-6.1-2.1-8.7-0.1l-11.4,9.1c-2.2,1.8-5.3,2-7.8,0.5l-13.8-8.2c-2.9-1.7-6.5-1.1-8.7,1.4l-8.7,10.1
		c-1.9,2.2-5,3-7.8,1.9l-15.1-6.1c-3.2-1.3-6.8,0-8.5,3l-6,10.5c-1.5,2.7-4.6,4-7.6,3.3L383.6,26c-3.5-0.9-7.1,1.1-8.2,4.6
		l-3.3,10.3c-1,3.1-4,5-7.2,4.7l-15.3-1.5c-3.8-0.4-7.1,2.4-7.5,6.2l-0.9,9.7c-0.3,3.4-3.1,6-6.5,6.2l-14.3,0.7
		c-4,0.2-7,3.7-6.5,7.7l1.1,9c0.4,3.6-2,6.9-5.5,7.5l-12.8,2.5c-4.1,0.8-6.5,5-5.2,8.9l2.8,8.2c1.2,3.5-0.7,7.4-4.2,8.6l-11,3.9
		c-4,1.4-5.8,6.2-3.6,9.9l4.4,7.6c1.9,3.3,0.7,7.6-2.6,9.4l-9.1,5c-3.8,2.1-4.7,7.2-1.9,10.5l6.1,7.2c2.5,3,2.1,7.4-1,9.8l0,0
		l-7.3,5.9c-3.4,2.7-3.4,7.9-0.1,10.6l8,6.6c2.9,2.5,3.3,6.9,0.8,9.8l-5.8,6.7c-2.8,3.2-2,8.2,1.7,10.4l10,5.9
		c3.2,1.9,4.3,6,2.5,9.3l-4.3,7.5c-2.1,3.6-0.5,8.2,3.4,9.8L292,270c3.3,1.3,5.1,5,4,8.5l-2.8,8.6c-1.2,3.8,1,7.8,4.9,8.8l13.9,3.4
		c3.3,0.8,5.5,3.9,5.2,7.3l-0.9,9.7c-0.4,3.8,2.4,7.1,6.2,7.5l15.3,1.5c3.2,0.3,5.8,2.8,6.2,6l1.3,10.8c0.4,3.6,3.5,6.2,7.1,6.1
		l16-0.7c3.1-0.1,5.9,1.8,6.8,4.7l3.8,11.4c1.1,3.3,4.4,5.2,7.8,4.6l16-3.1c2.9-0.6,5.8,0.8,7.3,3.3l6.6,11.6
		c1.7,2.9,5.1,4.2,8.3,3.1l15.2-5.4c2.7-1,5.7-0.2,7.5,2l9.4,11.1c2.1,2.5,5.7,3.1,8.5,1.6l13.6-7.4c2.5-1.4,5.5-1.1,7.7,0.7
		l11.9,9.9c2.5,2.1,6.1,2.1,8.7,0.1l11.4-9.1c2.2-1.8,5.3-2,7.8-0.5l13.8,8.2c2.9,1.7,6.5,1.1,8.7-1.4l8.7-10.1c1.9-2.2,5-3,7.8-1.9
		l15.1,6.1c3.2,1.3,6.8,0,8.5-3l6-10.5c1.5-2.7,4.6-4,7.6-3.3l15.6,3.8c3.5,0.9,7.1-1.1,8.2-4.6l3.3-10.3c1-3.1,4-5.1,7.2-4.7
		l15.3,1.5c3.8,0.4,7.1-2.4,7.5-6.2l0.9-9.8c0.3-3.4,3.1-6,6.5-6.2l14.3-0.7c4-0.2,7-3.7,6.5-7.7l-1.1-9c-0.4-3.6,2-6.9,5.5-7.5
		l12.8-2.5c4.1-0.8,6.5-5,5.2-8.9l-2.8-8.2c-1.2-3.5,0.7-7.4,4.2-8.6l10.9-3.9c4-1.4,5.8-6.2,3.7-9.9l-4.4-7.6
		c-1.9-3.3-0.7-7.6,2.6-9.4l9.1-5c3.8-2.1,4.7-7.2,1.9-10.5l-6.1-7.2c-2.5-3-2.1-7.4,1-9.8l7.3-5.9
		C741.5,208.8,741.6,203.6,738.3,200.8z M604.3,132.7c0.8-7.1,7.2-12.2,14.3-11.4c7.1,0.8,12.2,7.2,11.4,14.2
		c-0.8,7.1-7.2,12.2-14.2,11.4C608.6,146.2,603.5,139.8,604.3,132.7z M331.3,197.8l6.3-59.7c3-28.2,26.2-38.4,51.7-35.7
		c12.2,1.3,23.3,5.4,31.2,12.4c9.2-5.2,20.9-6.9,33.1-5.6c25.5,2.7,46.1,17.5,43.1,45.7l-6.3,59.7c-0.9,8.8-7.9,15.2-16.9,14.3
		c-9-0.9-14.5-8.7-13.6-17.5l5.8-55.4c1.2-11.6-7-17.8-15.1-18.6c-8-0.8-17.4,3.5-18.6,15.1l-5.8,55.4c-0.9,8.8-7.9,15.2-16.9,14.3
		c0,0,0,0-0.1,0s0,0-0.1,0c-9-0.9-14.5-8.7-13.6-17.5l5.8-55.4c1.2-11.6-7-17.8-15.1-18.6c-8-0.8-17.4,3.5-18.6,15.1l-5.8,55.4
		c-0.9,8.8-7.9,15.2-16.9,14.3C335.9,214.3,330.3,206.6,331.3,197.8z M387.6,279.6c-0.3,2.7-2.7,5.6-6.3,5.2
		c-5.5-0.6-6.1-4.6-6.3-8.8l-1.2-24.2l-0.1,0l-10.9,25.6c-1.6,3.8-3.6,5.2-7.3,4.8c-3.7-0.4-5.3-2.1-6.2-6.2l-5.5-27.3l-0.1,0
		l-6.1,23.5c-1,4.1-2.4,7.9-7.9,7.4c-3.6-0.4-5.4-3.7-5.1-6.4c0.2-1.8,1.9-7.8,3.4-13.3l7.7-27.1c1.8-6.3,5.8-7.2,8.9-6.9
		c6.1,0.6,7.1,4.3,9.2,14.3l4.1,19.1l0.1,0l7.9-17.9c4.1-9.3,5.8-12.8,11.9-12.1c3.1,0.3,6.8,2,7.3,8.5l2,28.1
		C387.4,271.5,387.8,277.8,387.6,279.6z M428,240.5c-0.4,3.5-2.8,5.4-6.7,5l-12.6-1.3l-1,9.7l11.6,1.2c3.9,0.4,5.9,2.8,5.5,6.3
		c-0.4,3.5-2.8,5.4-6.7,5l-11.6-1.2l-1,10l13.1,1.3c3.9,0.4,5.9,2.7,5.5,6.3c-0.3,3.4-2.8,5.4-6.7,5l-19.2-2
		c-3.2-0.3-5.9-2.8-5.5-6.7l4.3-41.5c0.4-3.9,3.6-5.8,6.7-5.5l18.7,1.9C426.3,234.6,428.3,237.1,428,240.5z M452.3,292.8
		c-16.9-1.7-25.1-15.4-23.6-30.8c1.7-16.3,14.1-26.9,29.3-25.4c10.1,1,20.4,6.4,19.6,13.9c-0.3,3-2.6,4.9-6,4.6
		c-4.5-0.5-6-6.3-14.2-7.1c-8.5-0.9-14.6,6-15.5,15.3c-0.8,8.3,2.4,17.2,11.9,18.2c6.4,0.7,11.3-3,12.5-9.2l-7-0.7
		c-3.9-0.4-5.9-2.9-5.5-6.3c0.4-3.5,2.8-5.4,6.7-5l13.2,1.4c4.2,0.4,6.2,3.1,5.7,8.1C477.9,284.2,467.2,294.4,452.3,292.8z
		 M525.2,294.5c-0.3,3-2.9,4.7-6.4,4.4c-4-0.4-5-3.1-5.8-6.6l-1-5l-20.1-2.1l-2,4.7c-1.5,3.3-3,5.7-7,5.3c-3.5-0.4-5.7-2.6-5.4-5.6
		c0.2-1.8,0.6-3.2,2.6-7.4l15-30.6c2.8-5.7,5.2-10.7,11.3-10.1c6.3,0.6,7.6,6,9.2,12.2l8.5,33C525.3,291.3,525.4,292.7,525.2,294.5z
		 M523.4,234c-9-0.9-14.5-8.6-13.6-17.5l6.1-57.8l0.1-0.3l2.8-26.2c0.5-4.8,2.8-8.8,6.2-11.4c2.9-2.2,6.6-3.3,10.8-2.9
		c9,0.9,14.5,8.7,13.6,17.5l-5.8,54.8l-0.1,0.3l-3.1,29.2c-0.5,4.8-2.8,8.8-6.2,11.4C531.2,233.3,527.5,234.4,523.4,234z M572.1,268
		c-1.1,10.5-8.3,17.5-19.9,16.4l-9.3-1l-1.2,11.2c-0.4,4.3-3.2,6.2-6.8,5.9c-3.5-0.4-5.9-2.8-5.5-7.1l4.3-41.6
		c0.4-3.9,3.6-5.8,6.7-5.5l15,1.5C565,248.8,573.4,255.9,572.1,268z M627.7,282.4c-1.8,17.1-13.4,27-29.3,25.4
		c-15.9-1.6-25.3-13.7-23.6-30.8c1.8-17.1,13.4-27,29.3-25.4C620.1,253.3,629.4,265.4,627.7,282.4z M661.9,307.4
		c-0.3,3.4-2.8,5.4-6.7,5l-19.3-2c-3.2-0.3-5.9-2.8-5.5-6.7l4.3-41.6c0.4-4.3,3.2-6.2,6.8-5.9c3.5,0.4,5.9,2.8,5.5,7.1l-3.7,36.4
		l13.1,1.3C660.2,301.5,662.3,303.8,661.9,307.4z M671.3,134.7l-1.2,11c-1.6,15.6-8.2,27.7-18.1,35.6c10,9.2,16.3,22.2,17.3,38.5
		l0.7,12.3c0.6,9.8-4.9,15.1-13,15.6c-8,0.5-14.2-4.1-14.8-13.9l-0.7-12.3c-1.4-20-15.5-28.1-30.2-29.6c-13.7-1.4-26,6.1-27.7,22.3
		l-1.2,11c-1,9.7-7.3,14.1-15.4,13.2c-8-0.8-13.3-6.4-12.3-16.1l1.2-11c1.8-16.7,9.1-29.3,20.1-37.2c-2.9-3.8-5.3-8.1-7.3-13
		c-0.4-0.9-1.8-5.1-1.8-5.1l-2.4-8.3c-2.7-9.4,1.5-15.8,9.2-18.1c7.7-2.3,14.7,0.9,17.5,10.3l2.6,8.8c4.8,13.5,11.5,15.5,20.9,16.3
		c13.7,1.2,26-6.1,27.7-22.3l1.2-11c1-9.7,7.3-14.1,15.4-13.2C667.1,119.5,672.4,125,671.3,134.7z"/>
</g>
<g>
</g>
</svg>
