<?xml version="1.0" encoding="utf-8"?>
<!-- Generator: Adobe Illustrator 22.1.0, SVG Export Plug-In . SVG Version: 6.00 Build 0)  -->
<svg version="1.1" id="Warstwa_1" xmlns="http://www.w3.org/2000/svg" xmlns:xlink="http://www.w3.org/1999/xlink" x="0px" y="0px"
	 viewBox="0 0 162 70" style="enable-background:new 0 0 162 70;" xml:space="preserve">
<style type="text/css">
	.st0{fill:#FFFFFF;}
</style>
<path class="st0" d="M112.8,4.5L112.4,6c-0.4-0.2-1-0.3-1.5-0.3c-1.3,0-2.2,1-2.2,2.6V13h-1.5V4.4h1.5v1.1c0.6-0.8,1.5-1.3,2.5-1.3
	C111.8,4.2,112.3,4.3,112.8,4.5z M122.6,13h-1.5v-1.1c-0.7,0.8-1.7,1.3-3,1.3c-2.4,0-4.3-1.9-4.3-4.5s1.9-4.5,4.3-4.5
	c1.3,0,2.3,0.5,3,1.3V4.4h1.5V13z M115.3,8.7c0,1.7,1.2,3.1,3,3.1c1.7,0,2.9-1.3,2.9-3.1s-1.2-3.1-2.9-3.1
	C116.4,5.6,115.3,7,115.3,8.7z M132,5.6V0h1.5v13H132v-1.1c-0.7,0.8-1.7,1.3-3,1.3c-2.4,0-4.3-1.9-4.3-4.5s1.9-4.5,4.3-4.5
	C130.3,4.2,131.3,4.8,132,5.6z M126.2,8.7c0,1.7,1.2,3.1,3,3.1c1.7,0,2.9-1.3,2.9-3.1s-1.2-3.1-2.9-3.1C127.4,5.6,126.2,7,126.2,8.7
	z M138.4,1.4c0,0.6-0.5,1-1.1,1s-1-0.4-1-1s0.5-1.1,1-1.1C137.9,0.4,138.4,0.8,138.4,1.4z M138.1,13h-1.5V4.4h1.5V13z M149.6,8.7
	c0,2.5-1.9,4.5-4.5,4.5s-4.5-1.9-4.5-4.5c0-2.5,1.9-4.5,4.5-4.5C147.7,4.2,149.6,6.2,149.6,8.7z M142.1,8.7c0,1.8,1.3,3.1,3,3.1
	s3-1.3,3-3.1s-1.3-3.1-3-3.1C143.4,5.6,142.1,6.9,142.1,8.7z M160.2,15.8c-23.5,4.4-59.6,11.5-96.4,22.2
	c2.4-3.1,15.1-11.9,32.4-16.3c1.4-0.4,1.9-2.1,2.8-4.7c0.5-1.6,1.1-3.4,1.7-5.6c0.5-1.6-0.7-1.9-1.4-1.8
	c-7.1,1.2-40.4,8.9-49.5,32.6c-5.6,1.8-11.3,3.6-17,5.6c7.2-7.4,14.4-18,15.3-20.1c0.5-1.4,0.7-2.2,0.5-3c-0.3-1.7-1.9-4.5-3.2-5.9
	s-2.2-1.7-3.7-1.7c-7.4-0.4-27.3,7.3-29.6,8.4c-1.2,0.6-0.6,1.7-0.3,2.4c0.2,0.6,1.3,2.7,3.1,4.8s2.5,1.8,6.9-0.1
	c6.5-2.8,11.6-4.3,13.4-4.6C24.5,43.3,8.3,55.9,1.5,61.3c-1.3,1-1.6,2-1.2,3.2c0.3,1,2.4,4.2,3.4,5s2.3,0.6,4.4-0.1
	c2.8-1.1,16.7-7.9,41.3-15.8c9,19,32.9,12.7,39.5,8c1.9-1.4,2.5-3.7,2.9-5c0.4-1.4,1.5-4.6,2.1-6.6c0.6-1.8-0.1-2.5-1.4-1.7
	C79.6,56.7,65.4,56.8,61,50l0,0l0,0c15.9-4.7,31.9-8.6,47.9-12c-4.2,9.5-5.3,19.1-5.3,23.5c0,4.5,3.7,3.3,6,2.4s3.4-2.5,3.5-3.3
	c4.1-20,8.1-25.1,8.1-25.1c11.2-2.3,31.3-6.1,35.9-6.9c0.6-0.1,0.9-0.2,1.6-1.5c0.8-1.5,2.7-7,3-9.4C162,15.8,161.5,15.6,160.2,15.8
	z M32.8,47.8L32.8,47.8L32.8,47.8L32.8,47.8z"/>
</svg>
