<?xml version="1.0" encoding="UTF-8"?>
<svg xmlns="http://www.w3.org/2000/svg" version="1.2" viewBox="0 0 265 112" width="265" height="112">
  <title>Racyja</title>
  <style>
		.s0 { fill: #ee2915 } 
		.s1 { fill: #2c2e35 } 
	</style>
  <path id="Path 162" class="s0" d="m51.4 43l6.4-11.2c-1.2-1.9-1.9-4.2-1.9-6.6 0-6.9 5.6-12.5 12.5-12.5 6.9 0 12.5 5.6 12.5 12.5 0 2.4-0.7 4.7-2 6.6l6.5 11.2c4.7-4.5 7.6-10.8 7.6-17.8 0-13.6-11-24.6-24.6-24.6-13.6 0-24.6 11-24.6 24.6 0 7 2.9 13.3 7.6 17.8z"></path>
  <path id="Path 163" fill-rule="evenodd" class="s1" d="m42.3 47.2c0 5.3-1.9 9.9-5.7 13.7-3.7 3.7-8.4 5.7-13.7 5.7h-8.2v6.4h-14.1v-45.3h22.3c5.3 0 10 1.9 13.7 5.7 3.8 3.8 5.7 8.4 5.7 13.8zm-14.1 0c0-3-2.4-5.4-5.3-5.4h-8.2v10.7h8.2c2.9 0 5.3-2.4 5.3-5.3zm111.7 11.7h9.5v23.7h-14.1v-9.6h-33.1v-45.3h14v31.2h9.6v-31.2h14.1zm60.2-31.2h14.1v45.3h-14.1z"></path>
  <path id="Path 164" fill-rule="evenodd" class="s1" d="m191.4 39.9c3.8 3.8 5.7 8.3 5.7 13.7 0 5.3-1.9 10-5.7 13.7-3.8 3.8-8.4 5.7-13.7 5.7h-22.3v-45.3h14v6.5h8.3c5.3 0 9.9 1.9 13.7 5.7zm-8.4 13.7c0-2.9-2.4-5.4-5.3-5.4h-8.3v10.7h8.3c2.9 0 5.3-2.3 5.3-5.3zm81.2-25.9v45.3h-14.1v-6.4h-6.3l-12.5 16.2-11.2-8.5 9.3-12.2q-0.6-0.6-1.3-1.2c-3.7-3.8-5.7-8.4-5.7-13.7 0-5.4 2-10 5.7-13.8 3.8-3.8 8.4-5.7 13.8-5.7zm-14.1 14.1h-8.2c-3 0-5.4 2.4-5.4 5.4 0 2.9 2.4 5.3 5.4 5.3h8.2zm-154 31.3h-55.4l27.7-48.1zm-34.6-11.1h13.8l-7-12zm130.7 37q0 2.3-1.5 3.6-1.4 1.2-4.1 1.2h-2v5.1h-4.7v-15.1h6.3q3 0 4.6 1.5 1.4 1.3 1.4 3.7zm-4.8-0.2q0-1.6-1.9-1.6h-0.9v3.3h0.8q2 0 2-1.7z"></path>
  <path id="Path 165" fill-rule="evenodd" class="s1" d="m209.9 108.9h-4.9l-0.9-2.8h-4.7l-0.8 2.8h-5l5.1-15.1h6.1zm-6.7-6.1l-1.4-4.8-1.4 4.8zm25.7 9.1h-4.3v-3h-7.8v3h-4.3v-6.7q1.4 0 2-1.6 0.5-1.2 0.5-3.6v-6.1h12.2v11.3h1.7zm-6.4-6.8v-7.6h-3.1v3.6q0 3-1.4 4zm27.7 3.8h-4.7v-15.1h4.7zm-5.6-5q0 2.5-1.9 3.9-1.7 1.1-4.2 1.1h-5.8v-15.1h4.7v5.4h1.4q2.3 0 3.8 1 2 1.2 2 3.7zm-4.5 0.1q0-1.5-2.1-1.5h-0.6v3.1h0.6q2.1 0 2.1-1.6zm24-12.9q0 0.7-0.5 1.2-0.6 0.6-1.4 0.6-0.9 0-1.5-0.6-0.5-0.5-0.5-1.2 0-0.8 0.5-1.3 0.6-0.5 1.5-0.5 0.8 0 1.4 0.5 0.5 0.5 0.5 1.3zm-4.9 0q0 0.7-0.5 1.2-0.5 0.6-1.4 0.6-0.9 0-1.5-0.6-0.5-0.5-0.5-1.2 0-0.8 0.5-1.3 0.6-0.5 1.5-0.5 0.9 0 1.4 0.5 0.5 0.5 0.5 1.3zm5.2 17.8h-9.5v-15.1h9.5v3.8h-4.9v1.9h4.5v3.6h-4.5v2h4.9zm-251.6-4.8q0 2.5-1.9 3.8-1.6 1-4.2 1h-6.2v-15.1h11v3.8h-6.3v1.9h1.8q2.4 0 3.9 0.9 1.9 1.2 1.9 3.7zm-4.6 0.1q0-1.5-2-1.5h-1v2.9h1q2 0 2-1.4zm18 4.7h-9.5v-15.1h9.5v3.8h-4.8v2h4.5v3.5h-4.5v2.1h4.8zm17.7 0h-4.7v-11.4h-2.9v5.8q0 2.8-1 4.1-1.2 1.7-4.2 1.7-0.9 0-1.8-0.3l0.3-3.8q0.5 0.2 1.1 0.2 0.6 0 0.8-0.4 0.3-0.5 0.3-1.8v-9.2h12.1z"></path>
  <path id="Path 166" fill-rule="evenodd" class="s1" d="m63.5 108.9h-4.9l-0.8-2.8h-4.8l-0.8 2.8h-5l5.1-15.1h6.2zm-6.8-6.1l-1.4-4.8-1.4 4.8zm22.3-3.8q0 2.3-1.5 3.6-1.4 1.3-4.2 1.3h-1.9v5h-4.7v-15h6.3q3-0.1 4.5 1.4 1.5 1.3 1.5 3.7zm-4.8-0.1q0-1.7-2-1.7h-0.8v3.3h0.8q2 0 2-1.6zm22-5l-6.5 15h-5l1.9-4.2-5.5-10.8h5.3l2.6 5.5 2.2-5.5zm13.6 14.7q-2 0.8-3.7 0.8-3.6 0-5.9-2.3-2.3-2.2-2.3-5.7 0-3.6 2.5-5.9 2.4-2.1 5.6-2.1 2 0 3.8 0.9v4.6q-1.4-1.4-3.4-1.4-1.6 0-2.7 1.2-0.9 1.1-0.9 2.8 0 1.6 1 2.7 1 1 2.6 1 2.1 0 3.4-1.3zm19.1 0.4h-5.6l-4.4-6.7v6.7h-4.6v-15.1h4.6v6.3l4.3-6.3h5.4l-5.4 7.3zm18.8 0h-4.9l-0.8-2.9h-4.8l-0.8 2.9h-5l5.1-15.1h6.2zm-6.8-6.1l-1.4-4.8-1.4 4.8zm19.5 6.1h-9.5v-15.1h9.5v3.8h-4.8v1.9h4.5v3.6h-4.5v2h4.8z"></path>
</svg>
